<?xml version="1.0" encoding="utf-8"?>
<!-- Generator: Adobe Illustrator 24.3.0, SVG Export Plug-In . SVG Version: 6.00 Build 0)  -->
<svg version="1.1" id="Layer_1" xmlns="http://www.w3.org/2000/svg" xmlns:xlink="http://www.w3.org/1999/xlink" x="0px" y="0px"
	 viewBox="0 0 500 346.6" style="enable-background:new 0 0 500 346.6;" xml:space="preserve">
<style type="text/css">
	.st0{fill:#E6E6E6;}
	.st1{fill:#2F2E41;}
	.st2{fill:#3F3D56;}
	.st3{fill:#FFFFFF;}
	.st4{fill:#536DFE;}
	.st5{fill:#FFB8B8;}
</style>
<g>
	<ellipse class="st0" cx="117.7" cy="319.6" rx="87.6" ry="6.7"/>
	<path class="st1" d="M97.1,88.2c15.3-6.5,34.2-2.4,52.8,0.5c0.2-3.5,2.3-7.7,0.1-10.1c-2.7-2.9-2.4-6-0.8-9.1
		c4.1-7.9-1.8-16.3-7.7-23.3c-2.7-3.2-6.8-4.9-11-4.6l-11,0.8c-5.5,0.4-10.1,4.1-11.7,9.4l0,0c-2.6,3.6-4,7.1-3.1,10.7
		c-3.9,2.7-4.6,5.9-2.8,9.6c1.5,2.3,1.5,4.5-0.1,6.7c-2,2.8-3.6,5.9-4.6,9.2L97.1,88.2z"/>
	<path class="st1" d="M459.5,284.8H148.7c-5.8,0-10.4-4.7-10.4-10.4l0,0l0,0c112.7-13.1,223.3-13.1,331.7,0l0,0
		C469.9,280.2,465.3,284.8,459.5,284.8L459.5,284.8z"/>
	<path class="st2" d="M469.9,275l-331.7-0.6l38.4-64.7l0.2-0.3V66.9c0-7.3,5.9-13.2,13.2-13.2c0,0,0,0,0,0h226.3
		c7.3,0,13.2,5.9,13.2,13.2c0,0,0,0,0,0v143.5L469.9,275z"/>
	<path class="st3" d="M189.7,62.9c-2.4,0-4.3,1.9-4.3,4.3v130c0,2.4,1.9,4.3,4.3,4.3h228.7c2.4,0,4.3-1.9,4.3-4.3v-130
		c0-2.4-1.9-4.3-4.3-4.3L189.7,62.9z"/>
	<path class="st1" d="M190.7,218.6c-0.7,0-1.4,0.4-1.7,1.1l-11.8,25.8c-0.4,0.9,0,2,0.9,2.4c0.2,0.1,0.5,0.2,0.8,0.2H428
		c1,0,1.8-0.8,1.8-1.8c0-0.3-0.1-0.6-0.2-0.8l-12.9-25.8c-0.3-0.6-0.9-1-1.6-1L190.7,218.6z"/>
	<circle class="st3" cx="303.2" cy="58" r="2.8"/>
	<path class="st1" d="M278.7,252.9c-0.8,0-1.6,0.6-1.8,1.4l-3,11c-0.3,1,0.3,2,1.3,2.3c0.2,0,0.3,0.1,0.5,0.1h56.5
		c1,0,1.8-0.8,1.8-1.8c0-0.2,0-0.4-0.1-0.6l-3.8-11c-0.3-0.7-1-1.2-1.7-1.2L278.7,252.9z"/>
	<polygon class="st1" points="429.5,207.3 429.5,209.7 176.7,209.7 176.9,209.4 176.9,207.3 	"/>
	<circle class="st4" cx="422.4" cy="63.2" r="42.9"/>
	<path class="st3" d="M440.2,81.9h-35.6c-1.4,0-2.5-1.1-2.5-2.5V58c0-1.4,1.1-2.5,2.5-2.5h35.6c1.4,0,2.5,1.1,2.5,2.5v21.5
		C442.6,80.8,441.5,81.9,440.2,81.9z M404.6,58v21.5h35.6l0-21.5L404.6,58z"/>
	<path class="st3" d="M433.5,58h-22.1v-9.8c0-7.1,4.6-12.3,11-12.3c6.4,0,11,5.2,11,12.3V58z M413.8,55.5H431v-7.4
		c0-5.8-3.5-9.8-8.6-9.8c-5.1,0-8.6,4-8.6,9.8L413.8,55.5z"/>
	<circle class="st3" cx="422.4" cy="68.1" r="2.5"/>
	<path class="st0" d="M392.5,157.4H215.7c-1.8,0-3.3-1.5-3.3-3.3v-43.8c0-1.8,1.5-3.3,3.3-3.3h176.7c1.8,0,3.3,1.5,3.3,3.3v43.8
		C395.7,155.9,394.3,157.4,392.5,157.4z M215.7,108.3c-1.1,0-2,0.9-2,2v43.8c0,1.1,0.9,2,2,2h176.7c1.1,0,2-0.9,2-2v-43.8
		c0-1.1-0.9-2-2-2L215.7,108.3z"/>
	<circle class="st0" cx="243.2" cy="130.5" r="13.3"/>
	<path class="st0" d="M274,121.6c-1.2,0-2.2,1-2.2,2.2c0,1.2,1,2.2,2.2,2.2c0,0,0,0,0,0h104.8c1.2,0,2.2-1,2.2-2.2
		c0-1.2-1-2.2-2.2-2.2H274z"/>
	<path class="st0" d="M274,134.9c-1.2,0-2.2,1-2.2,2.2s1,2.2,2.2,2.2H319c1.2,0,2.2-1,2.2-2.2s-1-2.2-2.2-2.2H274z"/>
	<path class="st5" d="M176.2,135.8l-32.7,17.4l-0.4-14.5c10.7-1.8,20.8-4.9,30.2-9.9l3.4-8.4c1.2-2.9,4.5-4.3,7.5-3.2
		c0.9,0.4,1.7,0.9,2.3,1.7l0,0c1.9,2.3,1.7,5.7-0.5,7.8L176.2,135.8z"/>
	<path class="st1" d="M96.4,236.1L96.4,236.1c-0.5-1.8-0.2-3.7,0.8-5.2l7.2-11c3.5-5.4,10.6-7.3,16.3-4.3l0,0c-3,5.1-2.6,9.6,1,13.6
		c-5.6,2.8-10.9,6.3-15.5,10.6c-2.9,2-6.9,1.2-8.9-1.7C96.9,237.5,96.6,236.8,96.4,236.1z"/>
	<path class="st1" d="M177.7,221.7L177.7,221.7c-2.2,3.7-6.2,5.9-10.5,6l-47.7,0.4l-2.1-12l21.1-6.2l-17.8-13.6l19.4-22.7l35.3,32.9
		C179.8,210.3,180.7,216.7,177.7,221.7z"/>
	<path class="st1" d="M112.1,303.7H101c-10-68.7-20.2-137.6,9.9-163.4l35.6,5.8l-4.5,30.2l-19.9,22.7L112.1,303.7z"/>
	<path class="st1" d="M122,319.3L122,319.3c-1.8,0.5-3.7,0.2-5.2-0.8l-12.1-1.6c-5.4-3.5-7.3-10.5-4.3-16.3l0,0
		c5.1,3,9.6,2.6,13.6-1c2.8,5.6,7.3,5.2,11.7,9.9c2,2.9,1.2,6.9-1.7,8.9C123.3,318.8,122.6,319.1,122,319.3z"/>
	<path class="st5" d="M138.6,94.5l-20.7-5c3.4-7,3.7-14.9,2.1-23.2l14.1-0.4C134.5,76.3,135.8,85.9,138.6,94.5z"/>
	<path class="st4" d="M144.3,158.6c-15.1,10.3-25.7,0.4-33.8-14.9c1.1-9.4-0.7-20.5-4.1-32.7c-3.1-11.1,2.8-22.8,13.6-26.8l0,0
		l17.8,7.4c15.1,12.3,18.1,25.6,12.4,39.7L144.3,158.6z"/>
	<path class="st5" d="M101,104.8l-16.5,8.7l29.4,17.4l4.1,10.1c1.1,2.7-0.2,5.9-2.9,7c-0.1,0-0.2,0.1-0.3,0.1l0,0
		c-2.8,1-5.8-0.5-6.8-3.3c-0.2-0.5-0.3-0.9-0.3-1.4l-0.4-7l-37.3-12.3c-2.5-0.8-4.6-2.8-5.5-5.3l0,0c-1.3-3.7,0-7.9,3.3-10.2
		l30-20.6L101,104.8z"/>
	<path class="st4" d="M117.5,106.5c-6.9-3-13.2,0.3-21.1,2.9l-1.2-21.9c7.9-4.2,15.4-5.3,22.3-2.1L117.5,106.5z"/>
	<circle class="st5" cx="125.8" cy="63.6" r="13.2"/>
	<path class="st1" d="M141.6,61.9c-13.1,1.3-23-0.9-29.4-6.9v-4.9h28.3L141.6,61.9z"/>
</g>
</svg>
